<mxfile host="Electron" modified="2024-08-22T06:08:57.399Z" agent="Mozilla/5.0 (Macintosh; Intel Mac OS X 10_15_7) AppleWebKit/537.36 (KHTML, like Gecko) draw.io/24.6.4 Chrome/124.0.6367.207 Electron/30.0.6 Safari/537.36" etag="_YsYmlvwUZan15gho8A-" version="24.6.4" type="device">
  <diagram name="페이지-1" id="i7mIVDMwZY8ddmSB2-Eb">
    <mxGraphModel dx="1064" dy="810" grid="1" gridSize="10" guides="1" tooltips="1" connect="1" arrows="1" fold="1" page="1" pageScale="1" pageWidth="827" pageHeight="1169" math="0" shadow="0">
      <root>
        <mxCell id="0" />
        <mxCell id="1" parent="0" />
        <mxCell id="MpTgkQGHD9kvxme9Fb2c-7" value="" style="edgeStyle=orthogonalEdgeStyle;rounded=0;orthogonalLoop=1;jettySize=auto;html=1;" edge="1" parent="1" source="MpTgkQGHD9kvxme9Fb2c-1" target="MpTgkQGHD9kvxme9Fb2c-2">
          <mxGeometry relative="1" as="geometry" />
        </mxCell>
        <mxCell id="MpTgkQGHD9kvxme9Fb2c-11" value="투입" style="edgeLabel;html=1;align=center;verticalAlign=middle;resizable=0;points=[];" vertex="1" connectable="0" parent="MpTgkQGHD9kvxme9Fb2c-7">
          <mxGeometry x="-0.2571" y="-1" relative="1" as="geometry">
            <mxPoint as="offset" />
          </mxGeometry>
        </mxCell>
        <mxCell id="MpTgkQGHD9kvxme9Fb2c-1" value="«interface»&lt;br&gt;&lt;b&gt;인터페이스&lt;/b&gt;" style="html=1;whiteSpace=wrap;" vertex="1" parent="1">
          <mxGeometry x="160" y="160" width="110" height="50" as="geometry" />
        </mxCell>
        <mxCell id="MpTgkQGHD9kvxme9Fb2c-8" value="" style="edgeStyle=orthogonalEdgeStyle;rounded=0;orthogonalLoop=1;jettySize=auto;html=1;" edge="1" parent="1" source="MpTgkQGHD9kvxme9Fb2c-2" target="MpTgkQGHD9kvxme9Fb2c-3">
          <mxGeometry relative="1" as="geometry" />
        </mxCell>
        <mxCell id="MpTgkQGHD9kvxme9Fb2c-9" value="생성" style="edgeLabel;html=1;align=center;verticalAlign=middle;resizable=0;points=[];" vertex="1" connectable="0" parent="MpTgkQGHD9kvxme9Fb2c-8">
          <mxGeometry x="-0.0333" y="2" relative="1" as="geometry">
            <mxPoint as="offset" />
          </mxGeometry>
        </mxCell>
        <mxCell id="MpTgkQGHD9kvxme9Fb2c-2" value="Proxy" style="html=1;whiteSpace=wrap;fontStyle=1" vertex="1" parent="1">
          <mxGeometry x="160" y="280" width="110" height="50" as="geometry" />
        </mxCell>
        <mxCell id="MpTgkQGHD9kvxme9Fb2c-13" style="edgeStyle=orthogonalEdgeStyle;rounded=0;orthogonalLoop=1;jettySize=auto;html=1;entryX=0.25;entryY=1;entryDx=0;entryDy=0;exitX=1;exitY=0.25;exitDx=0;exitDy=0;strokeColor=#FF3333;" edge="1" parent="1" source="MpTgkQGHD9kvxme9Fb2c-3" target="MpTgkQGHD9kvxme9Fb2c-4">
          <mxGeometry relative="1" as="geometry" />
        </mxCell>
        <mxCell id="MpTgkQGHD9kvxme9Fb2c-18" value="2.위임" style="edgeLabel;html=1;align=center;verticalAlign=middle;resizable=0;points=[];fontColor=#FF3333;" vertex="1" connectable="0" parent="MpTgkQGHD9kvxme9Fb2c-13">
          <mxGeometry x="-0.4706" y="5" relative="1" as="geometry">
            <mxPoint x="15" y="-7" as="offset" />
          </mxGeometry>
        </mxCell>
        <mxCell id="MpTgkQGHD9kvxme9Fb2c-19" style="edgeStyle=orthogonalEdgeStyle;rounded=0;orthogonalLoop=1;jettySize=auto;html=1;exitX=-0.002;exitY=0.199;exitDx=0;exitDy=0;exitPerimeter=0;strokeColor=#FF3333;" edge="1" parent="1" source="MpTgkQGHD9kvxme9Fb2c-3">
          <mxGeometry relative="1" as="geometry">
            <mxPoint x="70" y="400" as="targetPoint" />
            <Array as="points" />
          </mxGeometry>
        </mxCell>
        <mxCell id="MpTgkQGHD9kvxme9Fb2c-21" value="1.call" style="edgeLabel;html=1;align=center;verticalAlign=middle;resizable=0;points=[];fontColor=#FF3333;" vertex="1" connectable="0" parent="MpTgkQGHD9kvxme9Fb2c-19">
          <mxGeometry x="-0.1262" relative="1" as="geometry">
            <mxPoint y="-10" as="offset" />
          </mxGeometry>
        </mxCell>
        <mxCell id="MpTgkQGHD9kvxme9Fb2c-3" value="«Concrete»&lt;br&gt;&lt;b&gt;구현체&lt;/b&gt;" style="html=1;whiteSpace=wrap;" vertex="1" parent="1">
          <mxGeometry x="160" y="390" width="110" height="50" as="geometry" />
        </mxCell>
        <mxCell id="MpTgkQGHD9kvxme9Fb2c-10" value="" style="edgeStyle=orthogonalEdgeStyle;rounded=0;orthogonalLoop=1;jettySize=auto;html=1;" edge="1" parent="1" source="MpTgkQGHD9kvxme9Fb2c-4" target="MpTgkQGHD9kvxme9Fb2c-2">
          <mxGeometry relative="1" as="geometry" />
        </mxCell>
        <mxCell id="MpTgkQGHD9kvxme9Fb2c-12" value="투입" style="edgeLabel;html=1;align=center;verticalAlign=middle;resizable=0;points=[];" vertex="1" connectable="0" parent="MpTgkQGHD9kvxme9Fb2c-10">
          <mxGeometry x="-0.1143" y="1" relative="1" as="geometry">
            <mxPoint as="offset" />
          </mxGeometry>
        </mxCell>
        <mxCell id="MpTgkQGHD9kvxme9Fb2c-14" style="edgeStyle=orthogonalEdgeStyle;rounded=0;orthogonalLoop=1;jettySize=auto;html=1;entryX=1;entryY=0.75;entryDx=0;entryDy=0;exitX=0.75;exitY=1;exitDx=0;exitDy=0;strokeColor=#FF3333;" edge="1" parent="1" source="MpTgkQGHD9kvxme9Fb2c-4" target="MpTgkQGHD9kvxme9Fb2c-3">
          <mxGeometry relative="1" as="geometry" />
        </mxCell>
        <mxCell id="MpTgkQGHD9kvxme9Fb2c-17" value="4.return" style="edgeLabel;html=1;align=center;verticalAlign=middle;resizable=0;points=[];fontColor=#FF3333;" vertex="1" connectable="0" parent="MpTgkQGHD9kvxme9Fb2c-14">
          <mxGeometry x="-0.52" y="1" relative="1" as="geometry">
            <mxPoint x="27" as="offset" />
          </mxGeometry>
        </mxCell>
        <mxCell id="MpTgkQGHD9kvxme9Fb2c-15" style="edgeStyle=orthogonalEdgeStyle;rounded=0;orthogonalLoop=1;jettySize=auto;html=1;exitX=1;exitY=0.25;exitDx=0;exitDy=0;entryX=1;entryY=0.75;entryDx=0;entryDy=0;strokeColor=#FF3333;" edge="1" parent="1" source="MpTgkQGHD9kvxme9Fb2c-4" target="MpTgkQGHD9kvxme9Fb2c-4">
          <mxGeometry relative="1" as="geometry">
            <mxPoint x="560" y="390" as="targetPoint" />
            <Array as="points">
              <mxPoint x="490" y="293" />
              <mxPoint x="490" y="318" />
            </Array>
          </mxGeometry>
        </mxCell>
        <mxCell id="MpTgkQGHD9kvxme9Fb2c-16" value="3.수행" style="edgeLabel;html=1;align=center;verticalAlign=middle;resizable=0;points=[];fontColor=#FF3333;" vertex="1" connectable="0" parent="MpTgkQGHD9kvxme9Fb2c-15">
          <mxGeometry x="0.0381" y="2" relative="1" as="geometry">
            <mxPoint as="offset" />
          </mxGeometry>
        </mxCell>
        <mxCell id="MpTgkQGHD9kvxme9Fb2c-4" value="Worker" style="html=1;whiteSpace=wrap;fontStyle=1" vertex="1" parent="1">
          <mxGeometry x="340" y="280" width="110" height="50" as="geometry" />
        </mxCell>
        <mxCell id="MpTgkQGHD9kvxme9Fb2c-20" style="edgeStyle=orthogonalEdgeStyle;rounded=0;orthogonalLoop=1;jettySize=auto;html=1;strokeColor=#FF3333;" edge="1" parent="1">
          <mxGeometry relative="1" as="geometry">
            <mxPoint x="160" y="430" as="targetPoint" />
            <mxPoint x="70" y="430" as="sourcePoint" />
            <Array as="points">
              <mxPoint x="160" y="430" />
            </Array>
          </mxGeometry>
        </mxCell>
        <mxCell id="MpTgkQGHD9kvxme9Fb2c-22" value="5.return" style="edgeLabel;html=1;align=center;verticalAlign=middle;resizable=0;points=[];fontColor=#FF3333;" vertex="1" connectable="0" parent="MpTgkQGHD9kvxme9Fb2c-20">
          <mxGeometry x="0.0938" y="-1" relative="1" as="geometry">
            <mxPoint y="-11" as="offset" />
          </mxGeometry>
        </mxCell>
        <mxCell id="MpTgkQGHD9kvxme9Fb2c-41" style="edgeStyle=orthogonalEdgeStyle;rounded=0;orthogonalLoop=1;jettySize=auto;html=1;entryX=0.5;entryY=0;entryDx=0;entryDy=0;" edge="1" parent="1" source="MpTgkQGHD9kvxme9Fb2c-25" target="MpTgkQGHD9kvxme9Fb2c-32">
          <mxGeometry relative="1" as="geometry" />
        </mxCell>
        <mxCell id="MpTgkQGHD9kvxme9Fb2c-25" value="&lt;div&gt;&lt;span style=&quot;font-weight: normal;&quot;&gt;&amp;lt;&amp;lt;interface&amp;gt;&amp;gt;&lt;/span&gt;&lt;/div&gt;MyInterface" style="swimlane;fontStyle=1;align=center;verticalAlign=top;childLayout=stackLayout;horizontal=1;startSize=40;horizontalStack=0;resizeParent=1;resizeParentMax=0;resizeLast=0;collapsible=1;marginBottom=0;whiteSpace=wrap;html=1;" vertex="1" parent="1">
          <mxGeometry x="220" y="520" width="160" height="92" as="geometry" />
        </mxCell>
        <mxCell id="MpTgkQGHD9kvxme9Fb2c-49" value="void m1()" style="text;strokeColor=none;fillColor=none;align=left;verticalAlign=top;spacingLeft=4;spacingRight=4;overflow=hidden;rotatable=0;points=[[0,0.5],[1,0.5]];portConstraint=eastwest;whiteSpace=wrap;html=1;" vertex="1" parent="MpTgkQGHD9kvxme9Fb2c-25">
          <mxGeometry y="40" width="160" height="26" as="geometry" />
        </mxCell>
        <mxCell id="MpTgkQGHD9kvxme9Fb2c-26" value="void m2()" style="text;strokeColor=none;fillColor=none;align=left;verticalAlign=top;spacingLeft=4;spacingRight=4;overflow=hidden;rotatable=0;points=[[0,0.5],[1,0.5]];portConstraint=eastwest;whiteSpace=wrap;html=1;" vertex="1" parent="MpTgkQGHD9kvxme9Fb2c-25">
          <mxGeometry y="66" width="160" height="26" as="geometry" />
        </mxCell>
        <mxCell id="MpTgkQGHD9kvxme9Fb2c-44" style="edgeStyle=orthogonalEdgeStyle;rounded=0;orthogonalLoop=1;jettySize=auto;html=1;entryX=0.5;entryY=0;entryDx=0;entryDy=0;" edge="1" parent="1" source="MpTgkQGHD9kvxme9Fb2c-29" target="MpTgkQGHD9kvxme9Fb2c-43">
          <mxGeometry relative="1" as="geometry" />
        </mxCell>
        <mxCell id="MpTgkQGHD9kvxme9Fb2c-29" value="class[]" style="html=1;whiteSpace=wrap;fontStyle=1" vertex="1" parent="1">
          <mxGeometry x="180" y="670" width="60" height="30" as="geometry" />
        </mxCell>
        <mxCell id="MpTgkQGHD9kvxme9Fb2c-30" value="{" style="html=1;whiteSpace=wrap;fontStyle=1" vertex="1" parent="1">
          <mxGeometry x="240" y="670" width="10" height="30" as="geometry" />
        </mxCell>
        <mxCell id="MpTgkQGHD9kvxme9Fb2c-31" value="}" style="html=1;whiteSpace=wrap;fontStyle=1" vertex="1" parent="1">
          <mxGeometry x="370" y="670" width="10" height="30" as="geometry" />
        </mxCell>
        <mxCell id="MpTgkQGHD9kvxme9Fb2c-32" value="" style="html=1;whiteSpace=wrap;fontStyle=1" vertex="1" parent="1">
          <mxGeometry x="250" y="670" width="30" height="30" as="geometry" />
        </mxCell>
        <mxCell id="MpTgkQGHD9kvxme9Fb2c-33" value="" style="html=1;whiteSpace=wrap;fontStyle=1" vertex="1" parent="1">
          <mxGeometry x="280" y="670" width="30" height="30" as="geometry" />
        </mxCell>
        <mxCell id="MpTgkQGHD9kvxme9Fb2c-34" value="" style="html=1;whiteSpace=wrap;fontStyle=1" vertex="1" parent="1">
          <mxGeometry x="310" y="670" width="30" height="30" as="geometry" />
        </mxCell>
        <mxCell id="MpTgkQGHD9kvxme9Fb2c-35" value="" style="html=1;whiteSpace=wrap;fontStyle=1" vertex="1" parent="1">
          <mxGeometry x="340" y="670" width="30" height="30" as="geometry" />
        </mxCell>
        <mxCell id="MpTgkQGHD9kvxme9Fb2c-36" value="&lt;div&gt;&lt;span style=&quot;font-weight: normal;&quot;&gt;&amp;lt;&amp;lt;interface&amp;gt;&amp;gt;&lt;/span&gt;&lt;/div&gt;InvocationHandler" style="swimlane;fontStyle=1;align=center;verticalAlign=top;childLayout=stackLayout;horizontal=1;startSize=40;horizontalStack=0;resizeParent=1;resizeParentMax=0;resizeLast=0;collapsible=1;marginBottom=0;whiteSpace=wrap;html=1;" vertex="1" parent="1">
          <mxGeometry x="460" y="570" width="160" height="66" as="geometry" />
        </mxCell>
        <mxCell id="MpTgkQGHD9kvxme9Fb2c-37" value="void invoke()" style="text;strokeColor=none;fillColor=none;align=left;verticalAlign=top;spacingLeft=4;spacingRight=4;overflow=hidden;rotatable=0;points=[[0,0.5],[1,0.5]];portConstraint=eastwest;whiteSpace=wrap;html=1;" vertex="1" parent="MpTgkQGHD9kvxme9Fb2c-36">
          <mxGeometry y="40" width="160" height="26" as="geometry" />
        </mxCell>
        <mxCell id="MpTgkQGHD9kvxme9Fb2c-40" style="edgeStyle=orthogonalEdgeStyle;rounded=0;orthogonalLoop=1;jettySize=auto;html=1;dashed=1;endArrow=block;endFill=0;" edge="1" parent="1" source="MpTgkQGHD9kvxme9Fb2c-38" target="MpTgkQGHD9kvxme9Fb2c-36">
          <mxGeometry relative="1" as="geometry" />
        </mxCell>
        <mxCell id="MpTgkQGHD9kvxme9Fb2c-45" style="edgeStyle=orthogonalEdgeStyle;rounded=0;orthogonalLoop=1;jettySize=auto;html=1;entryX=0.75;entryY=0;entryDx=0;entryDy=0;" edge="1" parent="1" source="MpTgkQGHD9kvxme9Fb2c-38" target="MpTgkQGHD9kvxme9Fb2c-43">
          <mxGeometry relative="1" as="geometry" />
        </mxCell>
        <mxCell id="MpTgkQGHD9kvxme9Fb2c-58" style="edgeStyle=orthogonalEdgeStyle;rounded=0;orthogonalLoop=1;jettySize=auto;html=1;" edge="1" parent="1" target="MpTgkQGHD9kvxme9Fb2c-39">
          <mxGeometry relative="1" as="geometry">
            <mxPoint x="670" y="700" as="targetPoint" />
            <mxPoint x="620" y="699.9999999999999" as="sourcePoint" />
            <Array as="points">
              <mxPoint x="640" y="700" />
              <mxPoint x="640" y="733" />
            </Array>
          </mxGeometry>
        </mxCell>
        <mxCell id="MpTgkQGHD9kvxme9Fb2c-59" value="3.실행" style="edgeLabel;html=1;align=center;verticalAlign=middle;resizable=0;points=[];" vertex="1" connectable="0" parent="MpTgkQGHD9kvxme9Fb2c-58">
          <mxGeometry x="-0.0632" y="1" relative="1" as="geometry">
            <mxPoint x="16" as="offset" />
          </mxGeometry>
        </mxCell>
        <mxCell id="MpTgkQGHD9kvxme9Fb2c-38" value="&lt;div&gt;&lt;span style=&quot;font-weight: normal;&quot;&gt;&amp;lt;&amp;lt;concrete&amp;gt;&amp;gt;&lt;/span&gt;&lt;/div&gt;MyInvocationHandler" style="swimlane;fontStyle=1;align=center;verticalAlign=top;childLayout=stackLayout;horizontal=1;startSize=40;horizontalStack=0;resizeParent=1;resizeParentMax=0;resizeLast=0;collapsible=1;marginBottom=0;whiteSpace=wrap;html=1;" vertex="1" parent="1">
          <mxGeometry x="460" y="680" width="160" height="66" as="geometry" />
        </mxCell>
        <mxCell id="MpTgkQGHD9kvxme9Fb2c-39" value="void invoke(){-}" style="text;strokeColor=none;fillColor=none;align=left;verticalAlign=top;spacingLeft=4;spacingRight=4;overflow=hidden;rotatable=0;points=[[0,0.5],[1,0.5]];portConstraint=eastwest;whiteSpace=wrap;html=1;" vertex="1" parent="MpTgkQGHD9kvxme9Fb2c-38">
          <mxGeometry y="40" width="160" height="26" as="geometry" />
        </mxCell>
        <mxCell id="MpTgkQGHD9kvxme9Fb2c-42" value="작업자" style="edgeLabel;html=1;align=center;verticalAlign=middle;resizable=0;points=[];fontColor=#FF3333;" vertex="1" connectable="0" parent="1">
          <mxGeometry x="649.9993917808586" y="680.0001758656088" as="geometry" />
        </mxCell>
        <mxCell id="MpTgkQGHD9kvxme9Fb2c-48" style="edgeStyle=orthogonalEdgeStyle;rounded=0;orthogonalLoop=1;jettySize=auto;html=1;entryX=0;entryY=0.5;entryDx=0;entryDy=0;" edge="1" parent="1" source="MpTgkQGHD9kvxme9Fb2c-43" target="MpTgkQGHD9kvxme9Fb2c-47">
          <mxGeometry relative="1" as="geometry" />
        </mxCell>
        <mxCell id="MpTgkQGHD9kvxme9Fb2c-50" value="생성" style="edgeLabel;html=1;align=center;verticalAlign=middle;resizable=0;points=[];" vertex="1" connectable="0" parent="MpTgkQGHD9kvxme9Fb2c-48">
          <mxGeometry x="-0.1408" y="1" relative="1" as="geometry">
            <mxPoint x="-2" y="-14" as="offset" />
          </mxGeometry>
        </mxCell>
        <mxCell id="MpTgkQGHD9kvxme9Fb2c-51" style="edgeStyle=orthogonalEdgeStyle;rounded=0;orthogonalLoop=1;jettySize=auto;html=1;" edge="1" parent="1" source="MpTgkQGHD9kvxme9Fb2c-43">
          <mxGeometry relative="1" as="geometry">
            <mxPoint x="90" y="825" as="targetPoint" />
          </mxGeometry>
        </mxCell>
        <mxCell id="MpTgkQGHD9kvxme9Fb2c-52" value="newProxyInstance()" style="edgeLabel;html=1;align=center;verticalAlign=middle;resizable=0;points=[];" vertex="1" connectable="0" parent="MpTgkQGHD9kvxme9Fb2c-51">
          <mxGeometry x="-0.3131" y="1" relative="1" as="geometry">
            <mxPoint x="-9" y="14" as="offset" />
          </mxGeometry>
        </mxCell>
        <mxCell id="MpTgkQGHD9kvxme9Fb2c-56" style="edgeStyle=orthogonalEdgeStyle;rounded=0;orthogonalLoop=1;jettySize=auto;html=1;exitX=0.229;exitY=-0.001;exitDx=0;exitDy=0;exitPerimeter=0;" edge="1" parent="1" source="MpTgkQGHD9kvxme9Fb2c-43">
          <mxGeometry relative="1" as="geometry">
            <mxPoint x="170" y="770" as="targetPoint" />
            <Array as="points">
              <mxPoint x="250" y="790" />
              <mxPoint x="170" y="790" />
            </Array>
          </mxGeometry>
        </mxCell>
        <mxCell id="MpTgkQGHD9kvxme9Fb2c-43" value="Proxy" style="html=1;whiteSpace=wrap;fontStyle=1" vertex="1" parent="1">
          <mxGeometry x="225" y="800" width="110" height="50" as="geometry" />
        </mxCell>
        <mxCell id="MpTgkQGHD9kvxme9Fb2c-53" style="edgeStyle=orthogonalEdgeStyle;rounded=0;orthogonalLoop=1;jettySize=auto;html=1;" edge="1" parent="1">
          <mxGeometry relative="1" as="geometry">
            <mxPoint x="524" y="800" as="sourcePoint" />
            <mxPoint x="524" y="746" as="targetPoint" />
          </mxGeometry>
        </mxCell>
        <mxCell id="MpTgkQGHD9kvxme9Fb2c-57" value="" style="edgeStyle=orthogonalEdgeStyle;rounded=0;orthogonalLoop=1;jettySize=auto;html=1;entryX=0.751;entryY=0.988;entryDx=0;entryDy=0;entryPerimeter=0;startArrow=classic;startFill=1;endArrow=none;endFill=0;" edge="1" parent="1">
          <mxGeometry relative="1" as="geometry">
            <mxPoint x="557.1944444444443" y="800" as="sourcePoint" />
            <mxPoint x="557.16" y="745.688" as="targetPoint" />
            <Array as="points">
              <mxPoint x="557" y="748" />
            </Array>
          </mxGeometry>
        </mxCell>
        <mxCell id="MpTgkQGHD9kvxme9Fb2c-47" value="«Concrete»&lt;br&gt;&lt;span style=&quot;font-weight: 700;&quot;&gt;MyInterface&amp;nbsp;&lt;/span&gt;&lt;div&gt;&lt;b&gt;구현체&lt;/b&gt;&lt;/div&gt;" style="html=1;whiteSpace=wrap;" vertex="1" parent="1">
          <mxGeometry x="460" y="800" width="160" height="50" as="geometry" />
        </mxCell>
        <mxCell id="MpTgkQGHD9kvxme9Fb2c-55" value="client" style="html=1;whiteSpace=wrap;fontStyle=1" vertex="1" parent="1">
          <mxGeometry x="690" y="800" width="110" height="50" as="geometry" />
        </mxCell>
      </root>
    </mxGraphModel>
  </diagram>
</mxfile>
